<?xml version="1.0" standalone="no"?>
<svg xmlns="http://www.w3.org/2000/svg"
 width="9mm" height="9mm"
 viewBox="0 0 25.511811 25.511811">
<g transform="translate(0,25.511811) scale(0.009449,-0.009449)"
   fill="#000000" stroke="none">
  <path fill-rule="evenodd" d="M 1350,2630 C 2057,2630 2630,2057 2630,1350 C 2630,643 2057,70 1350,70 C 643,70 70,643 70,1350 C 70,2057 643,2630 1350,2630 z M 0,1350 m930 0 l0 -680 -80 0 -80 0 0 680 0 680 80 0 80 0 0 -680z m209 428 l-4 -253 213 -3 212 -2 0 255 0 255 85 0 85 0 0 -680 0 -680 -85 0 -85 0 0 355 0 355 -288 0 -289 0 -6 203 c-4 111 -7 257 -7 325 l0 122 86 0 87 0 -4 -252z m791 -428 l0 -680 -80 0 -80 0 0 680 0 680 80 0 80 0 0 -680z m-420 -17 c0 -5 -15 -35 -33 -68 l-32 -60 -157 -3 -158 -3 0 -264 0 -265 -75 0 -75 0 0 335 0 335 265 0 c146 0 265 -3 265 -7z"/>
</g>
</svg>